<svg width="38" height="50" viewBox="0 0 38 50" fill="none" xmlns="http://www.w3.org/2000/svg">
<path d="M6.18857 19.3509C5.472 19.2531 4.82057 19.2206 3.77828 19.2206C2.80114 19.2206 2.11714 19.2531 1.49828 19.3183C0.879423 19.3834 0.618852 19.0903 0.716566 18.504C0.977137 17.0709 1.46571 14.2046 1.46571 11.1429C1.46571 8.08114 0.977137 5.24743 0.716566 3.81429C0.618852 3.19543 0.879423 2.90229 1.49828 2.96743C2.11714 3.03257 2.80114 3.06514 3.77828 3.06514C4.82057 3.06514 5.34171 3.03257 5.96057 2.93486C6.57942 2.86971 6.87257 3.19543 6.74228 3.81429L6.57942 4.79143C7.16571 3.65143 8.33828 2.34857 10.5531 2.34857C12.1491 2.34857 13.0286 3.39086 13.4194 6.38743V6.35486C13.6149 5.76857 14.4617 2.34857 18.0446 2.34857C20.292 2.34857 22.1811 4.46572 22.1811 11.208C22.1811 14.2371 22.6697 17.0709 22.9303 18.504C23.028 19.0903 22.7674 19.416 22.1486 19.3509C21.432 19.2531 20.748 19.2206 19.7383 19.2206C18.7611 19.2206 18.1097 19.2531 17.4583 19.3183C16.872 19.3834 16.5789 19.0577 16.7417 18.4714C17.0674 17.0057 17.6863 14.1069 17.6863 11.208C17.6863 7.56 16.6114 6.61543 15.6343 6.61543C14.2011 6.61543 13.6474 9.09086 13.6474 10.5566V11.208C13.6474 14.2046 14.2011 17.0383 14.592 18.4714C14.7223 19.0577 14.4617 19.416 13.8103 19.3183C13.224 19.2531 12.7354 19.2206 12.0189 19.2206C11.0743 19.2206 10.5206 19.2531 9.99942 19.3183C9.41314 19.3834 9.08742 19.0903 9.18514 18.504C9.51085 17.0383 9.99942 14.1069 9.99942 11.208C9.99942 7.56 9.12 6.61543 8.17542 6.61543C6.87257 6.61543 6.09085 8.7 5.96057 10.1657V11.1429C5.96057 14.172 6.57942 17.0383 6.90514 18.4714C7.068 19.0577 6.77485 19.416 6.18857 19.3509ZM27.7202 19.7091C24.7235 19.7091 23.4206 16.6474 23.3229 11.0451C23.3229 6.90857 24.9515 2.34857 28.111 2.34857C29.6419 2.34857 30.6842 3.16286 31.4008 4.10743L31.3356 3.81429C31.2053 3.19543 31.531 2.86971 32.1173 2.93486C32.7036 3.03257 33.2899 3.06514 34.267 3.06514C35.2768 3.06514 35.8956 3.03257 36.547 2.96743C37.1333 2.90229 37.4265 3.19543 37.2962 3.81429C37.003 5.28 36.5145 8.08114 36.5145 11.1429C36.5145 14.2046 37.003 17.0383 37.2962 18.4714C37.4265 19.0903 37.1333 19.3834 36.547 19.3183C35.8956 19.2531 35.2768 19.2206 34.267 19.2206C33.2899 19.2206 32.7036 19.2531 32.1173 19.3183C31.4985 19.416 31.2379 19.0577 31.4008 18.4389C31.531 17.9177 31.6939 17.2011 31.7916 16.3543C31.4659 17.5594 30.6516 19.7091 27.7202 19.7091ZM31.8242 15.0189V11.0126C31.8242 8.472 31.2053 6.648 29.8699 6.648C28.7299 6.648 27.9482 8.63486 27.9156 11.0451C27.9808 14.6931 30.0002 16.1914 31.8242 15.0189Z" fill="white"/>
<mask id="mask0_16_853" style="mask-type:luminance" maskUnits="userSpaceOnUse" x="0" y="19" width="38" height="31">
<path d="M38 19.2857H0V49.1428H38V19.2857Z" fill="white"/>
</mask>
<g mask="url(#mask0_16_853)">
<path d="M9.03855 46.5263C8.01255 46.3797 6.98655 46.3309 5.47198 46.3309C3.95741 46.3309 3.02912 46.3797 2.05198 46.4774C1.17255 46.5751 0.73284 46.1354 0.928268 45.256C1.36798 43.0574 2.10084 38.8069 2.10084 34.2143C2.10084 29.6217 1.36798 25.42 0.928268 23.2214C0.73284 22.2931 1.17255 21.8534 2.05198 21.9511C3.02912 22.0489 3.95741 22.0977 5.47198 22.0977C6.93769 22.0977 7.57284 22.0489 8.40341 21.9511C9.23398 21.8046 9.72255 22.2931 9.62484 23.1726L9.38055 25.762C10.2111 23.5634 11.8723 21.0229 14.3151 21.0229C14.8525 21.0229 15.3411 21.0717 15.732 21.0717C16.6114 21.1206 16.9045 21.5114 16.8068 22.342C16.6114 23.6611 16.416 25.6643 16.4648 27.1789C16.4648 28.1071 16.2205 28.2537 15.39 27.9606C14.5594 27.6674 13.7288 27.6186 12.9471 27.6186C9.62484 27.6186 8.98969 31.2829 8.94084 34.654C8.98969 39.1 9.72255 43.1551 10.2111 45.256C10.4065 46.1354 9.91798 46.624 9.03855 46.5263ZM28.9251 47.4057C20.7658 47.4057 16.7106 41.3963 16.7106 34.1654C16.7106 26.9834 20.4238 21.0229 27.8991 21.0229C34.3482 21.0229 37.4751 25.3223 37.4751 30.3057C37.4751 35.7289 32.8825 38.1717 29.3159 38.1717C27.6548 38.1717 25.9935 37.8786 24.6255 37.4389C25.1629 40.0771 26.7264 41.4451 29.2671 41.4451C31.5633 41.4451 33.5176 40.6146 35.5208 38.416C36.3025 37.6343 36.6445 37.7809 36.6445 38.8069C36.4979 41.0543 36.6933 43.1551 36.9376 45.3537C37.0353 46.2331 36.5956 46.624 35.7651 46.6729C33.7131 46.7706 32.2962 47.4057 28.9251 47.4057ZM27.7036 34.2631C29.3159 34.2631 30.6351 33.5303 30.6351 30.3057C30.4396 27.2277 29.4625 26.0551 27.8991 26.0551C25.8469 26.0551 24.5766 29.0843 24.3812 33.6769C25.6026 34.0189 26.4332 34.2631 27.7036 34.2631Z" fill="white"/>
</g>
</svg>
